# xmcd
#
# Track frame offsets: 
#        150
#        22493
#        37417
#        53711
#        71362
#        91189
#        109204
#        121070
#        137674
#        153610
#        166829
#        185685
#        197492
#        213563
#        229603
#        249303
#        267732
#        291113
#
# Disc length: 4117 seconds
#
# Revision: 4
# Processed by: cddbd v1.5.2PL0 Copyright (c) Steve Scherf et al.
# Submitted via: ExactAudioCopy v0.99pb4
#
DISCID=0d101312
DTITLE=Александр Новиков - ''Вези меня извозчик''
DYEAR=1984
DGENRE=шансон
TTITLE0=Вези меня, извозчик
TTITLE1=Куда ведут пути-дорожки
TTITLE2=Я вышел родом из еврейского квартала
TTITLE3=Город древний
TTITLE4=Гостиничная история
TTITLE5=В захолустном ресторане
TTITLE6=Рублики-копеечки
TTITLE7=Похороны Абрама
TTITLE8=Кляузник-сосед
TTITLE9=Телефонный разговор
TTITLE10=Фаэтон
TTITLE11=Меня не раз еще посадят в лужу
TTITLE12=Помнишь, девочка?
TTITLE13=Вы уезжаете...
TTITLE14=Катилась по асфальту
TTITLE15=Улица Восточная
TTITLE16=Развязать бы мой язык
TTITLE17=В магазине грампластинок
EXTD=
EXTT0=
EXTT1=
EXTT2=
EXTT3=
EXTT4=
EXTT5=
EXTT6=
EXTT7=
EXTT8=
EXTT9=
EXTT10=
EXTT11=
EXTT12=
EXTT13=
EXTT14=
EXTT15=
EXTT16=
EXTT17=
PLAYORDER=
